<svg xmlns="http://www.w3.org/2000/svg" version="1.1" xmlns:xlink="http://www.w3.org/1999/xlink" xmlns:svgjs="http://svgjs.dev/svgjs" width="1440" height="560" preserveAspectRatio="none" viewBox="0 0 1440 560"><g mask="url(&quot;#SvgjsMask1000&quot;)" fill="none"><rect width="1440" height="560" x="0" y="0" fill="#0e2a47"></rect><path d="M-90.33 340.1L-90.33 340.1" stroke="#132e65" stroke-width="1.5"></path><path d="M-90.33 340.1L-70.34 498.46" stroke="#132e65" stroke-width="1.5"></path><path d="M-90.33 340.1L77.17 495.44" stroke="#132e65" stroke-width="1.5"></path><path d="M-90.33 340.1L188.37 394.6" stroke="#132e65" stroke-width="1.5"></path><path d="M-90.33 340.1L-98.91 672.8" stroke="#132e65" stroke-width="1.5"></path><path d="M-90.33 340.1L240.55 506.93" stroke="#132e65" stroke-width="1.5"></path><path d="M-90.33 340.1L93.79 674.16" stroke="#132e65" stroke-width="1.5"></path><path d="M-70.34 498.46L-70.34 498.46" stroke="#132e65" stroke-width="1.5"></path><path d="M-70.34 498.46L77.17 495.44" stroke="#132e65" stroke-width="1.5"></path><path d="M-98.91 672.8L-98.91 672.8" stroke="#132e65" stroke-width="1.5"></path><path d="M-98.91 672.8L-70.34 498.46" stroke="#132e65" stroke-width="1.5"></path><path d="M-98.91 672.8L93.79 674.16" stroke="#132e65" stroke-width="1.5"></path><path d="M-98.91 672.8L77.17 495.44" stroke="#132e65" stroke-width="1.5"></path><path d="M77.17 495.44L77.17 495.44" stroke="#132e65" stroke-width="1.5"></path><path d="M77.17 495.44L188.37 394.6" stroke="#132e65" stroke-width="1.5"></path><path d="M77.17 495.44L240.55 506.93" stroke="#132e65" stroke-width="1.5"></path><path d="M93.79 674.16L93.79 674.16" stroke="#132e65" stroke-width="1.5"></path><path d="M93.79 674.16L232.03 701.76" stroke="#132e65" stroke-width="1.5"></path><path d="M93.79 674.16L77.17 495.44" stroke="#132e65" stroke-width="1.5"></path><path d="M93.79 674.16L240.55 506.93" stroke="#132e65" stroke-width="1.5"></path><path d="M93.79 674.16L-70.34 498.46" stroke="#132e65" stroke-width="1.5"></path><path d="M93.79 674.16L342.54 534.62" stroke="#132e65" stroke-width="1.5"></path><path d="M188.37 394.6L188.37 394.6" stroke="#132e65" stroke-width="1.5"></path><path d="M188.37 394.6L240.55 506.93" stroke="#132e65" stroke-width="1.5"></path><path d="M188.37 394.6L342.54 534.62" stroke="#132e65" stroke-width="1.5"></path><path d="M188.37 394.6L401.56 384.56" stroke="#132e65" stroke-width="1.5"></path><path d="M240.55 506.93L240.55 506.93" stroke="#132e65" stroke-width="1.5"></path><path d="M240.55 506.93L342.54 534.62" stroke="#132e65" stroke-width="1.5"></path><path d="M240.55 506.93L232.03 701.76" stroke="#132e65" stroke-width="1.5"></path><path d="M240.55 506.93L401.56 384.56" stroke="#132e65" stroke-width="1.5"></path><path d="M232.03 701.76L232.03 701.76" stroke="#132e65" stroke-width="1.5"></path><path d="M232.03 701.76L342.54 534.62" stroke="#132e65" stroke-width="1.5"></path><path d="M232.03 701.76L77.17 495.44" stroke="#132e65" stroke-width="1.5"></path><path d="M232.03 701.76L492.86 672.88" stroke="#132e65" stroke-width="1.5"></path><path d="M232.03 701.76L188.37 394.6" stroke="#132e65" stroke-width="1.5"></path><path d="M401.56 384.56L401.56 384.56" stroke="#132e65" stroke-width="1.5"></path><path d="M401.56 384.56L537.65 366.73" stroke="#132e65" stroke-width="1.5"></path><path d="M401.56 384.56L342.54 534.62" stroke="#132e65" stroke-width="1.5"></path><path d="M342.54 534.62L342.54 534.62" stroke="#132e65" stroke-width="1.5"></path><path d="M342.54 534.62L534.31 549.91" stroke="#132e65" stroke-width="1.5"></path><path d="M537.65 366.73L537.65 366.73" stroke="#132e65" stroke-width="1.5"></path><path d="M537.65 366.73L702.9 347.32" stroke="#132e65" stroke-width="1.5"></path><path d="M537.65 366.73L648.92 503.13" stroke="#132e65" stroke-width="1.5"></path><path d="M537.65 366.73L534.31 549.91" stroke="#132e65" stroke-width="1.5"></path><path d="M537.65 366.73L686.7 225.53" stroke="#132e65" stroke-width="1.5"></path><path d="M534.31 549.91L534.31 549.91" stroke="#132e65" stroke-width="1.5"></path><path d="M534.31 549.91L648.92 503.13" stroke="#132e65" stroke-width="1.5"></path><path d="M492.86 672.88L492.86 672.88" stroke="#132e65" stroke-width="1.5"></path><path d="M492.86 672.88L534.31 549.91" stroke="#132e65" stroke-width="1.5"></path><path d="M492.86 672.88L671.6 698.84" stroke="#132e65" stroke-width="1.5"></path><path d="M492.86 672.88L342.54 534.62" stroke="#132e65" stroke-width="1.5"></path><path d="M492.86 672.88L648.92 503.13" stroke="#132e65" stroke-width="1.5"></path><path d="M686.7 225.53L686.7 225.53" stroke="#132e65" stroke-width="1.5"></path><path d="M686.7 225.53L800.78 238.5" stroke="#132e65" stroke-width="1.5"></path><path d="M702.9 347.32L702.9 347.32" stroke="#132e65" stroke-width="1.5"></path><path d="M702.9 347.32L686.7 225.53" stroke="#132e65" stroke-width="1.5"></path><path d="M702.9 347.32L836.23 398.21" stroke="#132e65" stroke-width="1.5"></path><path d="M702.9 347.32L800.78 238.5" stroke="#132e65" stroke-width="1.5"></path><path d="M702.9 347.32L648.92 503.13" stroke="#132e65" stroke-width="1.5"></path><path d="M702.9 347.32L822.11 490.94" stroke="#132e65" stroke-width="1.5"></path><path d="M648.92 503.13L648.92 503.13" stroke="#132e65" stroke-width="1.5"></path><path d="M648.92 503.13L822.11 490.94" stroke="#132e65" stroke-width="1.5"></path><path d="M671.6 698.84L671.6 698.84" stroke="#132e65" stroke-width="1.5"></path><path d="M671.6 698.84L790.63 673.36" stroke="#132e65" stroke-width="1.5"></path><path d="M671.6 698.84L648.92 503.13" stroke="#132e65" stroke-width="1.5"></path><path d="M671.6 698.84L534.31 549.91" stroke="#132e65" stroke-width="1.5"></path><path d="M860.98 54.08L860.98 54.08" stroke="#132e65" stroke-width="1.5"></path><path d="M860.98 54.08L954.13 55.65" stroke="#132e65" stroke-width="1.5"></path><path d="M860.98 54.08L800.78 238.5" stroke="#132e65" stroke-width="1.5"></path><path d="M800.78 238.5L800.78 238.5" stroke="#132e65" stroke-width="1.5"></path><path d="M800.78 238.5L836.23 398.21" stroke="#132e65" stroke-width="1.5"></path><path d="M836.23 398.21L836.23 398.21" stroke="#132e65" stroke-width="1.5"></path><path d="M836.23 398.21L822.11 490.94" stroke="#132e65" stroke-width="1.5"></path><path d="M836.23 398.21L968.76 560.43" stroke="#132e65" stroke-width="1.5"></path><path d="M836.23 398.21L648.92 503.13" stroke="#132e65" stroke-width="1.5"></path><path d="M822.11 490.94L822.11 490.94" stroke="#132e65" stroke-width="1.5"></path><path d="M822.11 490.94L968.76 560.43" stroke="#132e65" stroke-width="1.5"></path><path d="M822.11 490.94L790.63 673.36" stroke="#132e65" stroke-width="1.5"></path><path d="M790.63 673.36L790.63 673.36" stroke="#132e65" stroke-width="1.5"></path><path d="M790.63 673.36L961.86 641.66" stroke="#132e65" stroke-width="1.5"></path><path d="M790.63 673.36L968.76 560.43" stroke="#132e65" stroke-width="1.5"></path><path d="M954.13 55.65L954.13 55.65" stroke="#132e65" stroke-width="1.5"></path><path d="M954.13 55.65L1007.4 240.24" stroke="#132e65" stroke-width="1.5"></path><path d="M954.13 55.65L1120.77 -43.13" stroke="#132e65" stroke-width="1.5"></path><path d="M954.13 55.65L1109.23 193.43" stroke="#132e65" stroke-width="1.5"></path><path d="M1007.4 240.24L1007.4 240.24" stroke="#132e65" stroke-width="1.5"></path><path d="M1007.4 240.24L1109.23 193.43" stroke="#132e65" stroke-width="1.5"></path><path d="M968.76 560.43L968.76 560.43" stroke="#132e65" stroke-width="1.5"></path><path d="M968.76 560.43L961.86 641.66" stroke="#132e65" stroke-width="1.5"></path><path d="M968.76 560.43L1088.93 651.37" stroke="#132e65" stroke-width="1.5"></path><path d="M968.76 560.43L1132.15 554.37" stroke="#132e65" stroke-width="1.5"></path><path d="M961.86 641.66L961.86 641.66" stroke="#132e65" stroke-width="1.5"></path><path d="M961.86 641.66L1088.93 651.37" stroke="#132e65" stroke-width="1.5"></path><path d="M961.86 641.66L1132.15 554.37" stroke="#132e65" stroke-width="1.5"></path><path d="M961.86 641.66L822.11 490.94" stroke="#132e65" stroke-width="1.5"></path><path d="M961.86 641.66L836.23 398.21" stroke="#132e65" stroke-width="1.5"></path><path d="M1120.77 -43.13L1120.77 -43.13" stroke="#132e65" stroke-width="1.5"></path><path d="M1120.77 -43.13L1252.3 43.85" stroke="#132e65" stroke-width="1.5"></path><path d="M1120.77 -43.13L1109.23 193.43" stroke="#132e65" stroke-width="1.5"></path><path d="M1120.77 -43.13L860.98 54.08" stroke="#132e65" stroke-width="1.5"></path><path d="M1120.77 -43.13L1411.06 -89.42" stroke="#132e65" stroke-width="1.5"></path><path d="M1109.23 193.43L1109.23 193.43" stroke="#132e65" stroke-width="1.5"></path><path d="M1109.23 193.43L1240.41 232.99" stroke="#132e65" stroke-width="1.5"></path><path d="M1109.23 193.43L1113 357.24" stroke="#132e65" stroke-width="1.5"></path><path d="M1109.23 193.43L1252.3 43.85" stroke="#132e65" stroke-width="1.5"></path><path d="M1113 357.24L1113 357.24" stroke="#132e65" stroke-width="1.5"></path><path d="M1113 357.24L1007.4 240.24" stroke="#132e65" stroke-width="1.5"></path><path d="M1113 357.24L1240.41 232.99" stroke="#132e65" stroke-width="1.5"></path><path d="M1132.15 554.37L1132.15 554.37" stroke="#132e65" stroke-width="1.5"></path><path d="M1132.15 554.37L1088.93 651.37" stroke="#132e65" stroke-width="1.5"></path><path d="M1132.15 554.37L1266.12 526.85" stroke="#132e65" stroke-width="1.5"></path><path d="M1132.15 554.37L1245.2 637.72" stroke="#132e65" stroke-width="1.5"></path><path d="M1088.93 651.37L1088.93 651.37" stroke="#132e65" stroke-width="1.5"></path><path d="M1088.93 651.37L1245.2 637.72" stroke="#132e65" stroke-width="1.5"></path><path d="M1088.93 651.37L1266.12 526.85" stroke="#132e65" stroke-width="1.5"></path><path d="M1252.3 43.85L1252.3 43.85" stroke="#132e65" stroke-width="1.5"></path><path d="M1252.3 43.85L1433.9 52.85" stroke="#132e65" stroke-width="1.5"></path><path d="M1252.3 43.85L1240.41 232.99" stroke="#132e65" stroke-width="1.5"></path><path d="M1252.3 43.85L1411.06 -89.42" stroke="#132e65" stroke-width="1.5"></path><path d="M1240.41 232.99L1240.41 232.99" stroke="#132e65" stroke-width="1.5"></path><path d="M1240.41 232.99L1297.71 374.93" stroke="#132e65" stroke-width="1.5"></path><path d="M1240.41 232.99L1414.71 226.41" stroke="#132e65" stroke-width="1.5"></path><path d="M1240.41 232.99L1395.59 347.89" stroke="#132e65" stroke-width="1.5"></path><path d="M1297.71 374.93L1297.71 374.93" stroke="#132e65" stroke-width="1.5"></path><path d="M1297.71 374.93L1395.59 347.89" stroke="#132e65" stroke-width="1.5"></path><path d="M1266.12 526.85L1266.12 526.85" stroke="#132e65" stroke-width="1.5"></path><path d="M1266.12 526.85L1245.2 637.72" stroke="#132e65" stroke-width="1.5"></path><path d="M1266.12 526.85L1412.92 534.56" stroke="#132e65" stroke-width="1.5"></path><path d="M1266.12 526.85L1297.71 374.93" stroke="#132e65" stroke-width="1.5"></path><path d="M1266.12 526.85L1438.8 645.03" stroke="#132e65" stroke-width="1.5"></path><path d="M1245.2 637.72L1245.2 637.72" stroke="#132e65" stroke-width="1.5"></path><path d="M1411.06 -89.42L1411.06 -89.42" stroke="#132e65" stroke-width="1.5"></path><path d="M1411.06 -89.42L1433.9 52.85" stroke="#132e65" stroke-width="1.5"></path><path d="M1411.06 -89.42L1570.9 -77.68" stroke="#132e65" stroke-width="1.5"></path><path d="M1433.9 52.85L1433.9 52.85" stroke="#132e65" stroke-width="1.5"></path><path d="M1433.9 52.85L1568.08 83.48" stroke="#132e65" stroke-width="1.5"></path><path d="M1433.9 52.85L1414.71 226.41" stroke="#132e65" stroke-width="1.5"></path><path d="M1433.9 52.85L1570.9 -77.68" stroke="#132e65" stroke-width="1.5"></path><path d="M1414.71 226.41L1414.71 226.41" stroke="#132e65" stroke-width="1.5"></path><path d="M1414.71 226.41L1395.59 347.89" stroke="#132e65" stroke-width="1.5"></path><path d="M1414.71 226.41L1551.84 231.34" stroke="#132e65" stroke-width="1.5"></path><path d="M1395.59 347.89L1395.59 347.89" stroke="#132e65" stroke-width="1.5"></path><path d="M1412.92 534.56L1412.92 534.56" stroke="#132e65" stroke-width="1.5"></path><path d="M1412.92 534.56L1438.8 645.03" stroke="#132e65" stroke-width="1.5"></path><path d="M1412.92 534.56L1591.99 497.51" stroke="#132e65" stroke-width="1.5"></path><path d="M1412.92 534.56L1395.59 347.89" stroke="#132e65" stroke-width="1.5"></path><path d="M1412.92 534.56L1571.59 648.52" stroke="#132e65" stroke-width="1.5"></path><path d="M1438.8 645.03L1438.8 645.03" stroke="#132e65" stroke-width="1.5"></path><path d="M1438.8 645.03L1571.59 648.52" stroke="#132e65" stroke-width="1.5"></path><path d="M1438.8 645.03L1245.2 637.72" stroke="#132e65" stroke-width="1.5"></path><path d="M1438.8 645.03L1591.99 497.51" stroke="#132e65" stroke-width="1.5"></path><path d="M1570.9 -77.68L1570.9 -77.68" stroke="#132e65" stroke-width="1.5"></path><path d="M1570.9 -77.68L1568.08 83.48" stroke="#132e65" stroke-width="1.5"></path><path d="M1570.9 -77.68L1551.84 231.34" stroke="#132e65" stroke-width="1.5"></path><path d="M1570.9 -77.68L1252.3 43.85" stroke="#132e65" stroke-width="1.5"></path><path d="M1568.08 83.48L1568.08 83.48" stroke="#132e65" stroke-width="1.5"></path><path d="M1568.08 83.48L1551.84 231.34" stroke="#132e65" stroke-width="1.5"></path><path d="M1568.08 83.48L1414.71 226.41" stroke="#132e65" stroke-width="1.5"></path><path d="M1568.08 83.48L1411.06 -89.42" stroke="#132e65" stroke-width="1.5"></path><path d="M1551.84 231.34L1551.84 231.34" stroke="#132e65" stroke-width="1.5"></path><path d="M1551.84 231.34L1544.23 356.28" stroke="#132e65" stroke-width="1.5"></path><path d="M1551.84 231.34L1395.59 347.89" stroke="#132e65" stroke-width="1.5"></path><path d="M1544.23 356.28L1544.23 356.28" stroke="#132e65" stroke-width="1.5"></path><path d="M1544.23 356.28L1395.59 347.89" stroke="#132e65" stroke-width="1.5"></path><path d="M1544.23 356.28L1591.99 497.51" stroke="#132e65" stroke-width="1.5"></path><path d="M1591.99 497.51L1591.99 497.51" stroke="#132e65" stroke-width="1.5"></path><path d="M1591.99 497.51L1571.59 648.52" stroke="#132e65" stroke-width="1.5"></path><path d="M1571.59 648.52L1571.59 648.52" stroke="#132e65" stroke-width="1.5"></path><circle r="5" cx="-90.33" cy="340.1" fill="#132e65"></circle><circle r="5" cx="-70.34" cy="498.46" fill="#132e65"></circle><circle r="5" cx="-98.91" cy="672.8" fill="#132e65"></circle><circle r="5" cx="77.17" cy="495.44" fill="#132e65"></circle><circle r="5" cx="93.79" cy="674.16" fill="#132e65"></circle><circle r="5" cx="188.37" cy="394.6" fill="#132e65"></circle><circle r="5" cx="240.55" cy="506.93" fill="#132e65"></circle><circle r="5" cx="232.03" cy="701.76" fill="#132e65"></circle><circle r="5" cx="401.56" cy="384.56" fill="#132e65"></circle><circle r="5" cx="342.54" cy="534.62" fill="#132e65"></circle><circle r="5" cx="537.65" cy="366.73" fill="#132e65"></circle><circle r="5" cx="534.31" cy="549.91" fill="#132e65"></circle><circle r="5" cx="492.86" cy="672.88" fill="#132e65"></circle><circle r="5" cx="686.7" cy="225.53" fill="#132e65"></circle><circle r="5" cx="702.9" cy="347.32" fill="#132e65"></circle><circle r="5" cx="648.92" cy="503.13" fill="#132e65"></circle><circle r="5" cx="671.6" cy="698.84" fill="#132e65"></circle><circle r="5" cx="860.98" cy="54.08" fill="#132e65"></circle><circle r="5" cx="800.78" cy="238.5" fill="#132e65"></circle><circle r="5" cx="836.23" cy="398.21" fill="#132e65"></circle><circle r="5" cx="822.11" cy="490.94" fill="#132e65"></circle><circle r="5" cx="790.63" cy="673.36" fill="#132e65"></circle><circle r="5" cx="954.13" cy="55.65" fill="#132e65"></circle><circle r="5" cx="1007.4" cy="240.24" fill="#132e65"></circle><circle r="5" cx="968.76" cy="560.43" fill="#132e65"></circle><circle r="5" cx="961.86" cy="641.66" fill="#132e65"></circle><circle r="5" cx="1120.77" cy="-43.13" fill="#132e65"></circle><circle r="5" cx="1109.23" cy="193.43" fill="#132e65"></circle><circle r="5" cx="1113" cy="357.24" fill="#132e65"></circle><circle r="5" cx="1132.15" cy="554.37" fill="#132e65"></circle><circle r="5" cx="1088.93" cy="651.37" fill="#132e65"></circle><circle r="5" cx="1252.3" cy="43.85" fill="#132e65"></circle><circle r="5" cx="1240.41" cy="232.99" fill="#132e65"></circle><circle r="5" cx="1297.71" cy="374.93" fill="#132e65"></circle><circle r="5" cx="1266.12" cy="526.85" fill="#132e65"></circle><circle r="5" cx="1245.2" cy="637.72" fill="#132e65"></circle><circle r="5" cx="1411.06" cy="-89.42" fill="#132e65"></circle><circle r="5" cx="1433.9" cy="52.85" fill="#132e65"></circle><circle r="5" cx="1414.71" cy="226.41" fill="#132e65"></circle><circle r="5" cx="1395.59" cy="347.89" fill="#132e65"></circle><circle r="5" cx="1412.92" cy="534.56" fill="#132e65"></circle><circle r="5" cx="1438.8" cy="645.03" fill="#132e65"></circle><circle r="5" cx="1570.9" cy="-77.68" fill="#132e65"></circle><circle r="5" cx="1568.08" cy="83.48" fill="#132e65"></circle><circle r="5" cx="1551.84" cy="231.34" fill="#132e65"></circle><circle r="5" cx="1544.23" cy="356.28" fill="#132e65"></circle><circle r="5" cx="1591.99" cy="497.51" fill="#132e65"></circle><circle r="5" cx="1571.59" cy="648.52" fill="#132e65"></circle><path d="M95.18 539.66L95.18 539.66" stroke="hsl(228.5, 77.2%, 51.5%)" stroke-width="1.5"></path><path d="M95.18 539.66L111.56 640.65" stroke="hsl(228.5, 77.2%, 51.5%)" stroke-width="1.5"></path><path d="M95.18 539.66L214.15 652" stroke="hsl(228.5, 77.2%, 51.5%)" stroke-width="1.5"></path><path d="M95.18 539.66L-80.07 488.67" stroke="hsl(228.5, 77.2%, 51.5%)" stroke-width="1.5"></path><path d="M95.18 539.66L-71.32 709.45" stroke="hsl(228.5, 77.2%, 51.5%)" stroke-width="1.5"></path><path d="M95.18 539.66L354.28 526.92" stroke="hsl(228.5, 77.2%, 51.5%)" stroke-width="1.5"></path><path d="M95.18 539.66L368.94 693.12" stroke="hsl(228.5, 77.2%, 51.5%)" stroke-width="1.5"></path><path d="M111.56 640.65L111.56 640.65" stroke="hsl(228.5, 77.2%, 51.5%)" stroke-width="1.5"></path><path d="M860.58 531.32L860.58 531.32" stroke="hsl(228.5, 77.2%, 51.5%)" stroke-width="1.5"></path><path d="M860.58 531.32L950.34 495.3" stroke="hsl(228.5, 77.2%, 51.5%)" stroke-width="1.5"></path><path d="M860.58 531.32L800.97 656.65" stroke="hsl(228.5, 77.2%, 51.5%)" stroke-width="1.5"></path><path d="M860.58 531.32L947.94 648.63" stroke="hsl(228.5, 77.2%, 51.5%)" stroke-width="1.5"></path><path d="M860.58 531.32L854.39 347.95" stroke="hsl(228.5, 77.2%, 51.5%)" stroke-width="1.5"></path><path d="M981.67 375.9L981.67 375.9" stroke="hsl(228.5, 77.2%, 51.5%)" stroke-width="1.5"></path><path d="M981.67 375.9L1092.73 410.54" stroke="hsl(228.5, 77.2%, 51.5%)" stroke-width="1.5"></path><path d="M981.67 375.9L949.86 260.91" stroke="hsl(228.5, 77.2%, 51.5%)" stroke-width="1.5"></path><path d="M981.67 375.9L950.34 495.3" stroke="hsl(228.5, 77.2%, 51.5%)" stroke-width="1.5"></path><path d="M981.67 375.9L854.39 347.95" stroke="hsl(228.5, 77.2%, 51.5%)" stroke-width="1.5"></path><path d="M981.67 375.9L860.58 531.32" stroke="hsl(228.5, 77.2%, 51.5%)" stroke-width="1.5"></path><path d="M1301.99 213.61L1301.99 213.61" stroke="hsl(228.5, 77.2%, 51.5%)" stroke-width="1.5"></path><path d="M1301.99 213.61L1399.42 192.33" stroke="hsl(228.5, 77.2%, 51.5%)" stroke-width="1.5"></path><path d="M1301.99 213.61L1270.07 75.77" stroke="hsl(228.5, 77.2%, 51.5%)" stroke-width="1.5"></path><path d="M1446.16 -40.41L1446.16 -40.41" stroke="hsl(228.5, 77.2%, 51.5%)" stroke-width="1.5"></path><path d="M1446.16 -40.41L1407.15 96.95" stroke="hsl(228.5, 77.2%, 51.5%)" stroke-width="1.5"></path><path d="M1444.64 650.14L1444.64 650.14" stroke="hsl(228.5, 77.2%, 51.5%)" stroke-width="1.5"></path><path d="M1444.64 650.14L1539.84 680.41" stroke="hsl(228.5, 77.2%, 51.5%)" stroke-width="1.5"></path><path d="M1444.64 650.14L1406.41 498.79" stroke="hsl(228.5, 77.2%, 51.5%)" stroke-width="1.5"></path><path d="M1544.97 342.13L1544.97 342.13" stroke="hsl(228.5, 77.2%, 51.5%)" stroke-width="1.5"></path><path d="M1544.97 342.13L1590.7 494.02" stroke="hsl(228.5, 77.2%, 51.5%)" stroke-width="1.5"></path><path d="M1544.97 342.13L1611.68 194.7" stroke="hsl(228.5, 77.2%, 51.5%)" stroke-width="1.5"></path><path d="M1544.97 342.13L1399.42 192.33" stroke="hsl(228.5, 77.2%, 51.5%)" stroke-width="1.5"></path><path d="M1544.97 342.13L1406.41 498.79" stroke="hsl(228.5, 77.2%, 51.5%)" stroke-width="1.5"></path><path d="M-80.07 488.67L-80.07 488.67" stroke="hsl(228.5, 77.2%, 51.5%)" stroke-width="1.5"></path><path d="M-80.07 488.67L-71.32 709.45" stroke="hsl(228.5, 77.2%, 51.5%)" stroke-width="1.5"></path><path d="M-80.07 488.67L111.56 640.65" stroke="hsl(228.5, 77.2%, 51.5%)" stroke-width="1.5"></path><path d="M-80.07 488.67L214.15 652" stroke="hsl(228.5, 77.2%, 51.5%)" stroke-width="1.5"></path><path d="M-80.07 488.67L354.28 526.92" stroke="hsl(228.5, 77.2%, 51.5%)" stroke-width="1.5"></path><path d="M-71.32 709.45L-71.32 709.45" stroke="hsl(228.5, 77.2%, 51.5%)" stroke-width="1.5"></path><path d="M-71.32 709.45L111.56 640.65" stroke="hsl(228.5, 77.2%, 51.5%)" stroke-width="1.5"></path><path d="M-71.32 709.45L214.15 652" stroke="hsl(228.5, 77.2%, 51.5%)" stroke-width="1.5"></path><path d="M214.15 652L214.15 652" stroke="hsl(228.5, 77.2%, 51.5%)" stroke-width="1.5"></path><path d="M214.15 652L111.56 640.65" stroke="hsl(228.5, 77.2%, 51.5%)" stroke-width="1.5"></path><path d="M214.15 652L368.94 693.12" stroke="hsl(228.5, 77.2%, 51.5%)" stroke-width="1.5"></path><path d="M214.15 652L354.28 526.92" stroke="hsl(228.5, 77.2%, 51.5%)" stroke-width="1.5"></path><path d="M354.28 526.92L354.28 526.92" stroke="hsl(228.5, 77.2%, 51.5%)" stroke-width="1.5"></path><path d="M354.28 526.92L368.94 693.12" stroke="hsl(228.5, 77.2%, 51.5%)" stroke-width="1.5"></path><path d="M354.28 526.92L516.83 487.66" stroke="hsl(228.5, 77.2%, 51.5%)" stroke-width="1.5"></path><path d="M354.28 526.92L519.61 669.44" stroke="hsl(228.5, 77.2%, 51.5%)" stroke-width="1.5"></path><path d="M368.94 693.12L368.94 693.12" stroke="hsl(228.5, 77.2%, 51.5%)" stroke-width="1.5"></path><path d="M368.94 693.12L519.61 669.44" stroke="hsl(228.5, 77.2%, 51.5%)" stroke-width="1.5"></path><path d="M516.83 487.66L516.83 487.66" stroke="hsl(228.5, 77.2%, 51.5%)" stroke-width="1.5"></path><path d="M516.83 487.66L652.71 526.55" stroke="hsl(228.5, 77.2%, 51.5%)" stroke-width="1.5"></path><path d="M516.83 487.66L519.61 669.44" stroke="hsl(228.5, 77.2%, 51.5%)" stroke-width="1.5"></path><path d="M516.83 487.66L706.45 362.85" stroke="hsl(228.5, 77.2%, 51.5%)" stroke-width="1.5"></path><path d="M519.61 669.44L519.61 669.44" stroke="hsl(228.5, 77.2%, 51.5%)" stroke-width="1.5"></path><path d="M519.61 669.44L664.34 666.87" stroke="hsl(228.5, 77.2%, 51.5%)" stroke-width="1.5"></path><path d="M519.61 669.44L652.71 526.55" stroke="hsl(228.5, 77.2%, 51.5%)" stroke-width="1.5"></path><path d="M519.61 669.44L800.97 656.65" stroke="hsl(228.5, 77.2%, 51.5%)" stroke-width="1.5"></path><path d="M706.45 362.85L706.45 362.85" stroke="hsl(228.5, 77.2%, 51.5%)" stroke-width="1.5"></path><path d="M706.45 362.85L854.39 347.95" stroke="hsl(228.5, 77.2%, 51.5%)" stroke-width="1.5"></path><path d="M706.45 362.85L652.71 526.55" stroke="hsl(228.5, 77.2%, 51.5%)" stroke-width="1.5"></path><path d="M652.71 526.55L652.71 526.55" stroke="hsl(228.5, 77.2%, 51.5%)" stroke-width="1.5"></path><path d="M652.71 526.55L664.34 666.87" stroke="hsl(228.5, 77.2%, 51.5%)" stroke-width="1.5"></path><path d="M664.34 666.87L664.34 666.87" stroke="hsl(228.5, 77.2%, 51.5%)" stroke-width="1.5"></path><path d="M664.34 666.87L800.97 656.65" stroke="hsl(228.5, 77.2%, 51.5%)" stroke-width="1.5"></path><path d="M854.39 347.95L854.39 347.95" stroke="hsl(228.5, 77.2%, 51.5%)" stroke-width="1.5"></path><path d="M854.39 347.95L949.86 260.91" stroke="hsl(228.5, 77.2%, 51.5%)" stroke-width="1.5"></path><path d="M854.39 347.95L950.34 495.3" stroke="hsl(228.5, 77.2%, 51.5%)" stroke-width="1.5"></path><path d="M854.39 347.95L1092.73 410.54" stroke="hsl(228.5, 77.2%, 51.5%)" stroke-width="1.5"></path><path d="M800.97 656.65L800.97 656.65" stroke="hsl(228.5, 77.2%, 51.5%)" stroke-width="1.5"></path><path d="M949.86 260.91L949.86 260.91" stroke="hsl(228.5, 77.2%, 51.5%)" stroke-width="1.5"></path><path d="M949.86 260.91L1114.11 228.45" stroke="hsl(228.5, 77.2%, 51.5%)" stroke-width="1.5"></path><path d="M949.86 260.91L1092.73 410.54" stroke="hsl(228.5, 77.2%, 51.5%)" stroke-width="1.5"></path><path d="M949.86 260.91L950.34 495.3" stroke="hsl(228.5, 77.2%, 51.5%)" stroke-width="1.5"></path><path d="M949.86 260.91L706.45 362.85" stroke="hsl(228.5, 77.2%, 51.5%)" stroke-width="1.5"></path><path d="M950.34 495.3L950.34 495.3" stroke="hsl(228.5, 77.2%, 51.5%)" stroke-width="1.5"></path><path d="M950.34 495.3L947.94 648.63" stroke="hsl(228.5, 77.2%, 51.5%)" stroke-width="1.5"></path><path d="M950.34 495.3L1092.73 410.54" stroke="hsl(228.5, 77.2%, 51.5%)" stroke-width="1.5"></path><path d="M947.94 648.63L947.94 648.63" stroke="hsl(228.5, 77.2%, 51.5%)" stroke-width="1.5"></path><path d="M947.94 648.63L800.97 656.65" stroke="hsl(228.5, 77.2%, 51.5%)" stroke-width="1.5"></path><path d="M1114.11 228.45L1114.11 228.45" stroke="hsl(228.5, 77.2%, 51.5%)" stroke-width="1.5"></path><path d="M1114.11 228.45L1092.73 410.54" stroke="hsl(228.5, 77.2%, 51.5%)" stroke-width="1.5"></path><path d="M1114.11 228.45L1301.99 213.61" stroke="hsl(228.5, 77.2%, 51.5%)" stroke-width="1.5"></path><path d="M1114.11 228.45L981.67 375.9" stroke="hsl(228.5, 77.2%, 51.5%)" stroke-width="1.5"></path><path d="M1092.73 410.54L1092.73 410.54" stroke="hsl(228.5, 77.2%, 51.5%)" stroke-width="1.5"></path><path d="M1092.73 410.54L1133.44 553.09" stroke="hsl(228.5, 77.2%, 51.5%)" stroke-width="1.5"></path><path d="M1092.73 410.54L1289.32 358.49" stroke="hsl(228.5, 77.2%, 51.5%)" stroke-width="1.5"></path><path d="M1133.44 553.09L1133.44 553.09" stroke="hsl(228.5, 77.2%, 51.5%)" stroke-width="1.5"></path><path d="M1133.44 553.09L1297.15 526.83" stroke="hsl(228.5, 77.2%, 51.5%)" stroke-width="1.5"></path><path d="M1133.44 553.09L950.34 495.3" stroke="hsl(228.5, 77.2%, 51.5%)" stroke-width="1.5"></path><path d="M1282.24 -86.2L1282.24 -86.2" stroke="hsl(228.5, 77.2%, 51.5%)" stroke-width="1.5"></path><path d="M1282.24 -86.2L1270.07 75.77" stroke="hsl(228.5, 77.2%, 51.5%)" stroke-width="1.5"></path><path d="M1282.24 -86.2L1446.16 -40.41" stroke="hsl(228.5, 77.2%, 51.5%)" stroke-width="1.5"></path><path d="M1282.24 -86.2L1407.15 96.95" stroke="hsl(228.5, 77.2%, 51.5%)" stroke-width="1.5"></path><path d="M1282.24 -86.2L1301.99 213.61" stroke="hsl(228.5, 77.2%, 51.5%)" stroke-width="1.5"></path><path d="M1270.07 75.77L1270.07 75.77" stroke="hsl(228.5, 77.2%, 51.5%)" stroke-width="1.5"></path><path d="M1270.07 75.77L1407.15 96.95" stroke="hsl(228.5, 77.2%, 51.5%)" stroke-width="1.5"></path><path d="M1270.07 75.77L1399.42 192.33" stroke="hsl(228.5, 77.2%, 51.5%)" stroke-width="1.5"></path><path d="M1270.07 75.77L1446.16 -40.41" stroke="hsl(228.5, 77.2%, 51.5%)" stroke-width="1.5"></path><path d="M1270.07 75.77L1114.11 228.45" stroke="hsl(228.5, 77.2%, 51.5%)" stroke-width="1.5"></path><path d="M1289.32 358.49L1289.32 358.49" stroke="hsl(228.5, 77.2%, 51.5%)" stroke-width="1.5"></path><path d="M1289.32 358.49L1301.99 213.61" stroke="hsl(228.5, 77.2%, 51.5%)" stroke-width="1.5"></path><path d="M1289.32 358.49L1297.15 526.83" stroke="hsl(228.5, 77.2%, 51.5%)" stroke-width="1.5"></path><path d="M1289.32 358.49L1406.41 498.79" stroke="hsl(228.5, 77.2%, 51.5%)" stroke-width="1.5"></path><path d="M1297.15 526.83L1297.15 526.83" stroke="hsl(228.5, 77.2%, 51.5%)" stroke-width="1.5"></path><path d="M1297.15 526.83L1406.41 498.79" stroke="hsl(228.5, 77.2%, 51.5%)" stroke-width="1.5"></path><path d="M1297.15 526.83L1444.64 650.14" stroke="hsl(228.5, 77.2%, 51.5%)" stroke-width="1.5"></path><path d="M1407.15 96.95L1407.15 96.95" stroke="hsl(228.5, 77.2%, 51.5%)" stroke-width="1.5"></path><path d="M1407.15 96.95L1399.42 192.33" stroke="hsl(228.5, 77.2%, 51.5%)" stroke-width="1.5"></path><path d="M1407.15 96.95L1301.99 213.61" stroke="hsl(228.5, 77.2%, 51.5%)" stroke-width="1.5"></path><path d="M1407.15 96.95L1611.68 194.7" stroke="hsl(228.5, 77.2%, 51.5%)" stroke-width="1.5"></path><path d="M1399.42 192.33L1399.42 192.33" stroke="hsl(228.5, 77.2%, 51.5%)" stroke-width="1.5"></path><path d="M1406.41 498.79L1406.41 498.79" stroke="hsl(228.5, 77.2%, 51.5%)" stroke-width="1.5"></path><path d="M1607.31 -44.71L1607.31 -44.71" stroke="hsl(228.5, 77.2%, 51.5%)" stroke-width="1.5"></path><path d="M1607.31 -44.71L1446.16 -40.41" stroke="hsl(228.5, 77.2%, 51.5%)" stroke-width="1.5"></path><path d="M1607.31 -44.71L1611.68 194.7" stroke="hsl(228.5, 77.2%, 51.5%)" stroke-width="1.5"></path><path d="M1611.68 194.7L1611.68 194.7" stroke="hsl(228.5, 77.2%, 51.5%)" stroke-width="1.5"></path><path d="M1611.68 194.7L1399.42 192.33" stroke="hsl(228.5, 77.2%, 51.5%)" stroke-width="1.5"></path><path d="M1590.7 494.02L1590.7 494.02" stroke="hsl(228.5, 77.2%, 51.5%)" stroke-width="1.5"></path><path d="M1590.7 494.02L1406.41 498.79" stroke="hsl(228.5, 77.2%, 51.5%)" stroke-width="1.5"></path><path d="M1590.7 494.02L1539.84 680.41" stroke="hsl(228.5, 77.2%, 51.5%)" stroke-width="1.5"></path><path d="M1590.7 494.02L1444.64 650.14" stroke="hsl(228.5, 77.2%, 51.5%)" stroke-width="1.5"></path><path d="M1590.7 494.02L1297.15 526.83" stroke="hsl(228.5, 77.2%, 51.5%)" stroke-width="1.5"></path><path d="M1590.7 494.02L1611.68 194.7" stroke="hsl(228.5, 77.2%, 51.5%)" stroke-width="1.5"></path><path d="M1539.84 680.41L1539.84 680.41" stroke="hsl(228.5, 77.2%, 51.5%)" stroke-width="1.5"></path><path d="M1539.84 680.41L1406.41 498.79" stroke="hsl(228.5, 77.2%, 51.5%)" stroke-width="1.5"></path><path d="M1539.84 680.41L1297.15 526.83" stroke="hsl(228.5, 77.2%, 51.5%)" stroke-width="1.5"></path><path d="M1539.84 680.41L1544.97 342.13" stroke="hsl(228.5, 77.2%, 51.5%)" stroke-width="1.5"></path><circle r="25" cx="95.18" cy="539.66" fill="url(&quot;#SvgjsRadialGradient1001&quot;)"></circle><circle r="25" cx="111.56" cy="640.65" fill="url(&quot;#SvgjsRadialGradient1001&quot;)"></circle><circle r="25" cx="860.58" cy="531.32" fill="url(&quot;#SvgjsRadialGradient1001&quot;)"></circle><circle r="25" cx="981.67" cy="375.9" fill="url(&quot;#SvgjsRadialGradient1001&quot;)"></circle><circle r="25" cx="1301.99" cy="213.61" fill="url(&quot;#SvgjsRadialGradient1001&quot;)"></circle><circle r="25" cx="1446.16" cy="-40.41" fill="url(&quot;#SvgjsRadialGradient1001&quot;)"></circle><circle r="25" cx="1444.64" cy="650.14" fill="url(&quot;#SvgjsRadialGradient1001&quot;)"></circle><circle r="25" cx="1544.97" cy="342.13" fill="url(&quot;#SvgjsRadialGradient1001&quot;)"></circle><circle r="5" cx="-80.07" cy="488.67" fill="#8b9ad9"></circle><circle r="5" cx="-71.32" cy="709.45" fill="#8b9ad9"></circle><circle r="5" cx="214.15" cy="652" fill="#8b9ad9"></circle><circle r="5" cx="354.28" cy="526.92" fill="#8b9ad9"></circle><circle r="5" cx="368.94" cy="693.12" fill="#8b9ad9"></circle><circle r="5" cx="516.83" cy="487.66" fill="#8b9ad9"></circle><circle r="5" cx="519.61" cy="669.44" fill="#8b9ad9"></circle><circle r="5" cx="706.45" cy="362.85" fill="#8b9ad9"></circle><circle r="5" cx="652.71" cy="526.55" fill="#8b9ad9"></circle><circle r="5" cx="664.34" cy="666.87" fill="#8b9ad9"></circle><circle r="5" cx="854.39" cy="347.95" fill="#8b9ad9"></circle><circle r="5" cx="800.97" cy="656.65" fill="#8b9ad9"></circle><circle r="5" cx="949.86" cy="260.91" fill="#8b9ad9"></circle><circle r="5" cx="950.34" cy="495.3" fill="#8b9ad9"></circle><circle r="5" cx="947.94" cy="648.63" fill="#8b9ad9"></circle><circle r="5" cx="1114.11" cy="228.45" fill="#8b9ad9"></circle><circle r="5" cx="1092.73" cy="410.54" fill="#8b9ad9"></circle><circle r="5" cx="1133.44" cy="553.09" fill="#8b9ad9"></circle><circle r="5" cx="1282.24" cy="-86.2" fill="#8b9ad9"></circle><circle r="5" cx="1270.07" cy="75.77" fill="#8b9ad9"></circle><circle r="5" cx="1289.32" cy="358.49" fill="#8b9ad9"></circle><circle r="5" cx="1297.15" cy="526.83" fill="#8b9ad9"></circle><circle r="5" cx="1407.15" cy="96.95" fill="#8b9ad9"></circle><circle r="5" cx="1399.42" cy="192.33" fill="#8b9ad9"></circle><circle r="5" cx="1406.41" cy="498.79" fill="#8b9ad9"></circle><circle r="5" cx="1607.31" cy="-44.71" fill="#8b9ad9"></circle><circle r="5" cx="1611.68" cy="194.7" fill="#8b9ad9"></circle><circle r="5" cx="1590.7" cy="494.02" fill="#8b9ad9"></circle><circle r="5" cx="1539.84" cy="680.41" fill="#8b9ad9"></circle></g><defs><mask id="SvgjsMask1000"><rect width="1440" height="560" fill="#ffffff"></rect></mask><radialGradient id="SvgjsRadialGradient1001"><stop stop-color="#ffffff" offset="0.1"></stop><stop stop-color="#1735b3" offset="0.2"></stop><stop stop-color="rgba(23, 53, 179, 0)" offset="1"></stop></radialGradient></defs></svg>